<svg xmlns="http://www.w3.org/2000/svg" width="14" height="14" viewBox="0 0 14 14" fill="none">
    <path d="M6.26772 1.09173V2.18345H13.2441V1.09173H6.26772ZM12.8189 1.09173V1.38388C12.6142 9.17973 12.378 12.009 11.8425 12.6087C11.6535 12.8393 11.4646 12.8855 11.1654 12.8855C10.7874 12.8855 9.84252 12.8701 8.8189 12.7932C9.03937 13.1161 9.16535 13.6081 9.19685 13.9464C10.126 13.9926 11.0866 14.0233 11.6378 13.9772C12.2047 13.9003 12.5512 13.7619 12.9134 13.2852C13.5591 12.4703 13.7638 9.76404 13.9843 1.73754C13.9843 1.5684 14 1.09173 14 1.09173H12.8189ZM0 11.194L0.15748 12.3934C1.92126 12.1628 4.40945 11.8552 6.7874 11.5477L6.77165 10.5175C4.22047 10.7943 1.6378 11.0557 0 11.194ZM0.0314961 4.39766C1.25984 5.42788 2.72441 6.90402 3.37008 7.87274L4.14173 6.93477C3.48031 5.98143 1.98425 4.5668 0.740158 3.58271L0.0314961 4.39766ZM4.88189 8.59543C5.79528 9.9178 6.69291 11.6861 7.00787 12.7932L8.07874 12.3012C7.74803 11.1787 6.80315 9.45651 5.85827 8.18026L4.88189 8.59543ZM3.30709 0C2.8189 1.46076 1.90551 3.50583 1.16535 4.75132L2.18898 5.12035C2.94488 3.90562 3.87402 1.95281 4.56693 0.369034L3.30709 0ZM5.35433 3.29056C4.29921 5.82767 2.40945 9.24124 0.944882 11.3171L1.9685 11.7322C3.44882 9.6564 5.29134 6.36585 6.58268 3.70572L5.35433 3.29056Z" fill="#030505"/>
</svg>