<svg xmlns="http://www.w3.org/2000/svg" width="14" height="14" viewBox="0 0 14 14" fill="none">
    <path d="M1.95666 3.12019C4.12568 3.8063 6.78006 5.12952 8.08451 6.22404L8.7974 5.19487C7.41712 4.11669 4.74756 2.84247 2.59372 2.20537L1.95666 3.12019ZM1.10726 0V1.12719H11.8462V0H1.10726ZM11.467 0V0.196033C11.3153 4.34539 11.1029 5.86464 10.7844 6.24037C10.6479 6.40373 10.5114 6.43641 10.2384 6.42007C9.95016 6.43641 9.23727 6.42007 8.46371 6.35473C8.64572 6.68145 8.75189 7.15519 8.78223 7.51459C9.57096 7.56359 10.3445 7.56359 10.7541 7.53092C11.1939 7.48191 11.4973 7.36756 11.7551 7.0245C12.195 6.46908 12.4074 4.86814 12.6045 0.555426C12.6197 0.375729 12.6197 0 12.6197 0H11.467ZM5.91549 0.473746C5.53629 3.28355 4.73239 6.01167 0.455038 7.26955C0.697725 7.51459 0.985915 7.98833 1.10726 8.29872C5.67281 6.82847 6.71939 3.8063 7.17443 0.473746H5.91549ZM3.94366 8.88681V12.3337C3.94366 13.6406 4.36836 14 6.0065 14C6.32503 14 8.70639 14 9.07042 14C10.4507 14 10.7844 13.4772 10.9361 11.3372C10.6327 11.2555 10.1625 11.0758 9.91983 10.8635C9.84399 12.6278 9.72264 12.8891 8.99458 12.8891C8.46371 12.8891 6.46154 12.8891 6.06717 12.8891C5.21777 12.8891 5.06609 12.7911 5.06609 12.3174V8.88681H3.94366ZM4.97508 7.98833C6.052 8.57643 7.29577 9.55659 7.84182 10.3244L8.67606 9.49125C8.08451 8.72345 6.84074 7.7923 5.74865 7.22054L4.97508 7.98833ZM10.2535 9.27888C11.4215 10.4714 12.5742 12.154 12.9837 13.3302L14 12.7095C13.545 11.5006 12.3619 9.88331 11.1788 8.72345L10.2535 9.27888ZM2.06284 9.13186C1.75948 10.5531 1.10726 12.007 0 12.8238L0.940412 13.4936C2.10834 12.5624 2.71506 11.0105 3.07909 9.47491L2.06284 9.13186Z" fill="#030505"/>
</svg>