<svg xmlns="http://www.w3.org/2000/svg" width="14" height="14" viewBox="0 0 14 14" fill="none">
    <path d="M3.26617 0C2.53871 2.31038 1.32131 4.60546 0 6.10492C0.207847 6.38033 0.534464 6.97705 0.653234 7.23716C2.10817 5.5082 3.45917 2.9071 4.32025 0.321311L3.26617 0ZM1.93001 3.94754V14H2.98409V2.8765L2.96925 2.8612L1.93001 3.94754ZM8.16543 0V13.9388H9.24921V0H8.16543ZM3.97879 3.02951V4.13115H13.7031V3.02951H3.97879ZM5.7158 10.129V11.1694H11.6543V10.129H5.7158ZM9.78367 3.59563L8.95228 3.85574C9.82821 6.83934 11.4168 9.88415 13.1538 11.5213C13.3616 11.2153 13.7328 10.8175 14 10.6186C12.263 9.18033 10.6299 6.33443 9.78367 3.59563ZM7.7052 3.53443C6.82927 6.33443 5.1368 9.24153 3.39979 10.6951C3.65217 10.8787 4.02333 11.2765 4.18664 11.5672C5.98303 9.88415 7.60127 6.85464 8.52174 3.79454L7.7052 3.53443Z" fill="#030505"/>
</svg>