<svg width="50" height="50" viewBox="0 0 50 50" fill="none" xmlns="http://www.w3.org/2000/svg">
<path fill-rule="evenodd" clip-rule="evenodd" d="M28.0134 3.86611C26.7749 1.37796 23.2251 1.37796 21.9866 3.86612L16.4674 14.954C16.141 15.6097 15.6097 16.141 14.954 16.4674L3.86611 21.9866C1.37796 23.2251 1.37796 26.7749 3.86612 28.0134L14.954 33.5326C15.6097 33.859 16.141 34.3903 16.4674 35.046L21.9866 46.1339C23.2251 48.622 26.7749 48.622 28.0134 46.1339L33.5326 35.046C33.859 34.3903 34.3903 33.859 35.046 33.5326L46.1339 28.0134C48.622 26.7749 48.622 23.2251 46.1339 21.9866L35.046 16.4674C34.3903 16.141 33.859 15.6097 33.5326 14.954L28.0134 3.86611ZM25 30.6965C28.1461 30.6965 30.6965 28.1461 30.6965 25C30.6965 21.8539 28.1461 19.3035 25 19.3035C21.8539 19.3035 19.3035 21.8539 19.3035 25C19.3035 28.1461 21.8539 30.6965 25 30.6965Z" fill="url(#gradient)"/>
    <defs><linearGradient id="gradient" x1="0.85" y1="0.15" x2="0.15" y2="0.85"><stop offset="0%" stop-color="#fca3a7"/><stop offset="100%" stop-color="#7c00ff"/></linearGradient></defs></svg>
