<svg width="27" height="27" viewBox="0 0 27 27" fill="none" xmlns="http://www.w3.org/2000/svg">
<path fill-rule="evenodd" clip-rule="evenodd" d="M13.5 0C12.5997 0 11.719 0.0882726 10.8664 0.256938C10.3246 0.364119 9.97231 0.89021 10.0795 1.43199C10.1867 1.97378 10.7128 2.32609 11.2545 2.21891C11.98 2.0754 12.7307 2 13.5 2C14.2693 2 15.02 2.0754 15.7455 2.21891C16.2872 2.3261 16.8133 1.97378 16.9205 1.432C17.0277 0.89021 16.6754 0.364119 16.1336 0.256938C15.281 0.0882728 14.4003 0 13.5 0ZM7.11112 3.9364C7.57006 3.62915 7.69302 3.00804 7.38577 2.54911C7.07853 2.09018 6.45742 1.96722 5.99849 2.27446C4.52672 3.25978 3.25978 4.52672 2.27446 5.99848C1.96722 6.45742 2.09018 7.07853 2.54911 7.38577C3.00804 7.69302 3.62915 7.57005 3.9364 7.11112C4.77628 5.8566 5.8566 4.77628 7.11112 3.9364ZM21.0015 2.27446C20.5426 1.96722 19.9215 2.09018 19.6142 2.54911C19.307 3.00804 19.4299 3.62915 19.8889 3.9364C21.1434 4.77628 22.2237 5.8566 23.0636 7.11112C23.3708 7.57006 23.992 7.69302 24.4509 7.38577C24.9098 7.07853 25.0328 6.45742 24.7255 5.99849C23.7402 4.52672 22.4733 3.25978 21.0015 2.27446ZM2.21891 11.2545C2.3261 10.7128 1.97378 10.1867 1.432 10.0795C0.89021 9.9723 0.364119 10.3246 0.256938 10.8664C0.0882728 11.719 0 12.5997 0 13.5C0 14.4003 0.0882726 15.281 0.256938 16.1336C0.364119 16.6754 0.89021 17.0277 1.43199 16.9205C1.97378 16.8133 2.32609 16.2872 2.21891 15.7455C2.0754 15.02 2 14.2693 2 13.5C2 12.7307 2.0754 11.98 2.21891 11.2545ZM26.7431 10.8664C26.6359 10.3246 26.1098 9.97231 25.568 10.0795C25.0262 10.1867 24.6739 10.7128 24.7811 11.2545C24.9246 11.98 25 12.7307 25 13.5C25 14.2693 24.9246 15.02 24.7811 15.7455C24.6739 16.2872 25.0262 16.8133 25.568 16.9205C26.1098 17.0277 26.6359 16.6754 26.7431 16.1336C26.9117 15.281 27 14.4003 27 13.5C27 12.5997 26.9117 11.719 26.7431 10.8664ZM3.9364 19.8889C3.62915 19.4299 3.00804 19.307 2.54911 19.6142C2.09018 19.9215 1.96722 20.5426 2.27446 21.0015C3.25978 22.4733 4.52672 23.7402 5.99848 24.7255C6.45742 25.0328 7.07853 24.9098 7.38577 24.4509C7.69302 23.992 7.57005 23.3708 7.11112 23.0636C5.8566 22.2237 4.77628 21.1434 3.9364 19.8889ZM24.7255 21.0015C25.0328 20.5426 24.9098 19.9215 24.4509 19.6142C23.992 19.307 23.3708 19.4299 23.0636 19.8889C22.2237 21.1434 21.1434 22.2237 19.8889 23.0636C19.4299 23.3708 19.307 23.992 19.6142 24.4509C19.9215 24.9098 20.5426 25.0328 21.0015 24.7255C22.4733 23.7402 23.7402 22.4733 24.7255 21.0015ZM11.2545 24.7811C10.7128 24.6739 10.1867 25.0262 10.0795 25.568C9.9723 26.1098 10.3246 26.6359 10.8664 26.7431C11.719 26.9117 12.5997 27 13.5 27C14.4003 27 15.281 26.9117 16.1336 26.7431C16.6754 26.6359 17.0277 26.1098 16.9205 25.568C16.8133 25.0262 16.2872 24.6739 15.7455 24.7811C15.02 24.9246 14.2693 25 13.5 25C12.7307 25 11.98 24.9246 11.2545 24.7811ZM10.4211 12.2C10.4211 12.68 10.7368 13 11.2105 13C11.6842 13 12 12.6 12 12.2C12 10.44 10.6579 9 9 9C7.34211 9 6 10.44 6 12.2C6 12.68 6.31579 13 6.78947 13C7.26316 13 7.57895 12.68 7.57895 12.2C7.57895 11.32 8.21053 10.6 9 10.6C9.78947 10.6 10.4211 11.32 10.4211 12.2ZM20.2105 13C19.7368 13 19.4211 12.68 19.4211 12.2C19.4211 11.32 18.7895 10.6 18 10.6C17.2105 10.6 16.5789 11.32 16.5789 12.2C16.5789 12.68 16.2632 13 15.7895 13C15.3158 13 15 12.68 15 12.2C15 10.44 16.3421 9 18 9C19.6579 9 21 10.44 21 12.2C21 12.6 20.6842 13 20.2105 13ZM16.9876 17.0833C17.0685 16.5 16.7451 16 16.2601 16H10.7637C10.2787 16 9.87454 16.5833 10.0362 17.0833C10.4404 18.75 11.8145 20 13.5119 20C15.2094 20 16.5835 18.75 16.9876 17.0833Z" fill="#A3A5A2"/>
</svg>
