<svg width="50" height="50" viewBox="0 0 50 50" fill="none" xmlns="http://www.w3.org/2000/svg">
<path fill-rule="evenodd" clip-rule="evenodd" d="M27.4238 8.001C26.4276 5.99966 23.5724 5.99966 22.5762 8.001L18.1368 16.9195C17.8743 17.4469 17.4469 17.8743 16.9195 18.1368L8.001 22.5762C5.99966 23.5724 5.99967 26.4276 8.00101 27.4238L16.9195 31.8632C17.4469 32.1257 17.8743 32.5531 18.1368 33.0805L22.5762 41.999C23.5724 44.0003 26.4276 44.0003 27.4238 41.999L31.8632 33.0805C32.1257 32.5531 32.5531 32.1257 33.0805 31.8632L41.999 27.4238C44.0003 26.4276 44.0003 23.5724 41.999 22.5762L33.0805 18.1368C32.5531 17.8743 32.1257 17.4469 31.8632 16.9195L27.4238 8.001ZM25 29.5819C27.5305 29.5819 29.5819 27.5305 29.5819 25C29.5819 22.4695 27.5305 20.418 25 20.418C22.4695 20.418 20.418 22.4695 20.418 25C20.418 27.5305 22.4695 29.5819 25 29.5819Z" fill="url(#paint0_linear_850_1711)"/>
<path fill-rule="evenodd" clip-rule="evenodd" d="M25 48.5417C30.1661 48.5417 34.9436 46.8776 38.8256 44.0563C38.2568 43.3439 37.9167 42.4408 37.9167 41.4583C37.9167 39.1571 39.7822 37.2917 42.0834 37.2917C42.1322 37.2947 42.1957 37.2959 42.2726 37.2974C42.7336 37.3063 43.6729 37.3244 44.7652 37.7937C47.1542 34.1104 48.5417 29.7172 48.5417 25C48.5417 19.8363 46.8792 15.0609 44.0602 11.1798C43.3472 11.7506 42.4426 12.0919 41.4583 12.0919C39.1571 12.0919 37.2917 10.2264 37.2917 7.92522C37.2947 7.87646 37.2959 7.81288 37.2974 7.736C37.3063 7.27404 37.3245 6.33184 37.7966 5.23668C34.1127 2.84649 29.7184 1.45833 25 1.45833C19.8339 1.45833 15.0564 3.12239 11.1744 5.94374C11.7432 6.65611 12.0833 7.55918 12.0833 8.54167C12.0833 10.8429 10.2178 12.7083 7.9166 12.7083C7.86784 12.7053 7.80428 12.7041 7.72743 12.7026H7.72741H7.72739H7.72737C7.26636 12.6937 6.32708 12.6756 5.2348 12.2063C2.84576 15.8896 1.45833 20.2828 1.45833 25C1.45833 30.143 3.10755 34.9009 5.90598 38.7735C6.60767 38.236 7.48525 37.9166 8.43742 37.9166C10.7386 37.9166 12.6041 39.7821 12.6041 42.0833C12.6011 42.1321 12.5998 42.1957 12.5984 42.2725C12.5896 42.7261 12.572 43.6424 12.1246 44.712C15.8246 47.1336 20.2479 48.5417 25 48.5417ZM38.5301 3.97413C34.6302 1.45933 29.9855 0 25 0C19.394 0 14.219 1.84518 10.0491 4.96135C9.42529 4.58896 8.69593 4.375 7.9166 4.375C6.55361 4.375 5.34347 5.02944 4.58328 6.04124C3.16661 4.62423 3.993 2.04833 4.58328 0.9375C0.38944 4.29257 0.93974 8.48262 3.12494 10.7292C3.40587 11.018 3.68954 11.2642 3.97132 11.4742C1.45825 15.3733 0 20.0163 0 25C0 30.5716 1.8226 35.7174 4.9041 39.8739C4.50277 40.5144 4.27075 41.2718 4.27075 42.0833C4.27075 43.4463 4.9252 44.6564 5.93699 45.4166C4.51999 46.8333 1.94408 46.0069 0.833252 45.4166C4.18832 49.6105 8.37838 49.0602 10.6249 46.875C10.9293 46.5789 11.1864 46.2798 11.4037 45.983C15.3172 48.5241 19.9862 50 25 50C30.606 50 35.781 48.1548 39.9509 45.0387C40.5747 45.411 41.3041 45.625 42.0834 45.625C43.4464 45.625 44.6565 44.9706 45.4167 43.9588C46.8334 45.3758 46.007 47.9517 45.4167 49.0625C49.6106 45.7074 49.0603 41.5174 46.8751 39.2708C46.5941 38.982 46.3105 38.7358 46.0287 38.5258C48.5418 34.6267 50 29.9837 50 25C50 19.3957 48.1559 14.2222 45.0415 10.053C45.4121 9.43018 45.625 8.70256 45.625 7.92522C45.625 6.56223 44.9706 5.3521 43.9588 4.59191C45.3758 3.17524 47.9517 4.00163 49.0625 4.59191C45.7074 0.398068 41.5174 0.948368 39.2708 3.13357C38.984 3.41256 38.7392 3.69426 38.5301 3.97413Z" fill="url(#paint1_linear_850_1711)"/>
<defs>
<linearGradient id="paint0_linear_850_1711" x1="43.5" y1="6.49997" x2="5.08147" y2="8.03671" gradientUnits="userSpaceOnUse">
<stop stop-color="#FCA3A7"/>
<stop offset="1" stop-color="#7C00FF"/>
</linearGradient>
<linearGradient id="paint1_linear_850_1711" x1="50" y1="-2.79397e-05" x2="-1.91694" y2="2.07665" gradientUnits="userSpaceOnUse">
<stop stop-color="#FCA3A7"/>
<stop offset="1" stop-color="#7C00FF"/>
</linearGradient>
</defs>
</svg>
