<svg width="108" height="108" viewBox="0 0 108 108" fill="none" xmlns="http://www.w3.org/2000/svg">
<g filter="url(#filter0_d_773_2419)">
<path fill-rule="evenodd" clip-rule="evenodd" d="M54.8477 16.002C52.8553 11.9993 47.1447 11.9993 45.1523 16.002L36.2736 33.839C35.7486 34.8938 34.8938 35.7486 33.839 36.2736L16.002 45.1523C11.9993 47.1447 11.9993 52.8553 16.002 54.8477L33.839 63.7263C34.8938 64.2514 35.7486 65.1062 36.2736 66.161L45.1523 83.998C47.1447 88.0007 52.8553 88.0007 54.8477 83.998L63.7264 66.161C64.2514 65.1062 65.1062 64.2514 66.161 63.7263L83.998 54.8477C88.0007 52.8552 88.0007 47.1447 83.998 45.1523L66.161 36.2736C65.1062 35.7486 64.2514 34.8938 63.7264 33.839L54.8477 16.002ZM50 59.1639C55.0611 59.1639 59.1639 55.0611 59.1639 50C59.1639 44.9389 55.0611 40.8361 50 40.8361C44.9389 40.8361 40.8361 44.9389 40.8361 50C40.8361 55.0611 44.9389 59.1639 50 59.1639Z" fill="url(#paint0_linear_773_2419)"/>
<path d="M45.3761 16.1134C47.2766 12.2955 52.7234 12.2955 54.6239 16.1134L63.5025 33.9504C64.0518 35.0539 64.9461 35.9481 66.0496 36.4974L83.8866 45.3761C87.7045 47.2765 87.7045 52.7234 83.8866 54.6239L66.0496 63.5025C64.9461 64.0518 64.0518 64.9461 63.5025 66.0496L54.6239 83.8866C52.7234 87.7045 47.2766 87.7045 45.3761 83.8866L36.4974 66.0496C35.9481 64.9461 35.0539 64.0518 33.9504 63.5025L16.1134 54.6239C12.2955 52.7234 12.2955 47.2766 16.1134 45.3761L33.9504 36.4974C35.0539 35.9481 35.9481 35.0539 36.4974 33.9504L45.3761 16.1134ZM50 59.4139C55.1991 59.4139 59.4139 55.1991 59.4139 50C59.4139 44.8008 55.1991 40.5861 50 40.5861C44.8008 40.5861 40.5861 44.8008 40.5861 50C40.5861 55.1991 44.8008 59.4139 50 59.4139Z" stroke="white" stroke-width="0.5"/>
</g>
<g filter="url(#filter1_d_773_2419)">
<path fill-rule="evenodd" clip-rule="evenodd" d="M50 97.0833C60.3322 97.0833 69.8871 93.7553 77.6511 88.1126C76.5134 86.6879 75.8333 84.8817 75.8333 82.9167C75.8333 78.3143 79.5642 74.5833 84.1666 74.5833C84.264 74.5894 84.391 74.5918 84.5444 74.5948H84.545C85.4671 74.6126 87.3457 74.6488 89.5304 75.5874C94.3085 68.2208 97.0833 59.4345 97.0833 50C97.0833 39.6726 93.7583 30.1218 88.1205 22.3597C86.6945 23.5012 84.8853 24.1838 82.9167 24.1838C78.3143 24.1838 74.5833 20.4528 74.5833 15.8504C74.5894 15.7529 74.5918 15.6258 74.5948 15.472C74.6126 14.5481 74.6489 12.6637 75.5931 10.4734C68.2254 5.69297 59.4369 2.91667 50 2.91667C39.6678 2.91667 30.1129 6.24474 22.3489 11.8874C23.4866 13.3121 24.1667 15.1183 24.1667 17.0833C24.1667 21.6857 20.4358 25.4167 15.8334 25.4167C15.7359 25.4106 15.6088 25.4082 15.4551 25.4052H15.455H15.455H15.455C14.5329 25.3874 12.6543 25.3512 10.4696 24.4126C5.69153 31.7792 2.91667 40.5655 2.91667 50C2.91667 60.2861 6.21513 69.8018 11.812 77.5471C13.2154 76.4721 14.9706 75.8333 16.8751 75.8333C21.4774 75.8333 25.2084 79.5643 25.2084 84.1666C25.2023 84.2642 25.1999 84.3913 25.1969 84.5451C25.1795 85.4521 25.1441 87.2849 24.2494 89.424C31.6493 94.2673 40.4958 97.0833 50 97.0833ZM77.0602 7.94825C69.2603 2.91866 59.971 0 50 0C38.7881 0 28.4381 3.69034 20.0984 9.92263C18.8507 9.1779 17.392 8.75 15.8334 8.75C13.1074 8.75 10.6872 10.0589 9.16677 12.0825C6.33344 9.24847 7.98621 4.09665 9.16677 1.875C0.779093 8.58514 1.87969 16.9652 6.25009 21.4583C6.8119 22.0359 7.3792 22.5284 7.94272 22.9484C2.91652 30.7465 0 40.0327 0 50C0 61.1432 3.64524 71.435 9.80831 79.748C9.00572 81.0289 8.54172 82.5436 8.54172 84.1666C8.54172 86.8926 9.85061 89.3129 11.8742 90.8333C9.04018 93.6666 3.88837 92.0138 1.66672 90.8333C8.37686 99.2209 16.757 98.1203 21.2501 93.7499C21.8588 93.1578 22.373 92.5596 22.8075 91.9661C30.6345 97.0482 39.9725 100 50 100C61.2119 100 71.5619 96.3097 79.9016 90.0774C81.1493 90.8221 82.608 91.25 84.1666 91.25C86.8926 91.25 89.3128 89.9411 90.8332 87.9175C93.6666 90.7515 92.0138 95.9033 90.8332 98.125C99.2209 91.4149 98.1203 83.0348 93.7499 78.5417C93.1881 77.9641 92.6208 77.4716 92.0573 77.0516C97.0835 69.2535 100 59.9673 100 50C100 38.7915 96.3119 28.4443 90.083 20.1059C90.8243 18.8604 91.25 17.4051 91.25 15.8504C91.25 13.1245 89.9411 10.7042 87.9175 9.18381C90.7515 6.35048 95.9033 8.00325 98.125 9.18381C91.4149 0.796135 83.0348 1.89673 78.5417 6.26713C77.968 6.82511 77.4783 7.38852 77.0602 7.94825Z" fill="url(#paint1_linear_773_2419)"/>
</g>
<defs>
<filter id="filter0_d_773_2419" x="10" y="13" width="80" height="80" filterUnits="userSpaceOnUse" color-interpolation-filters="sRGB">
<feFlood flood-opacity="0" result="BackgroundImageFix"/>
<feColorMatrix in="SourceAlpha" type="matrix" values="0 0 0 0 0 0 0 0 0 0 0 0 0 0 0 0 0 0 127 0" result="hardAlpha"/>
<feOffset dy="3"/>
<feGaussianBlur stdDeviation="1.5"/>
<feComposite in2="hardAlpha" operator="out"/>
<feColorMatrix type="matrix" values="0 0 0 0 0 0 0 0 0 0 0 0 0 0 0 0 0 0 0.15 0"/>
<feBlend mode="normal" in2="BackgroundImageFix" result="effect1_dropShadow_773_2419"/>
<feBlend mode="normal" in="SourceGraphic" in2="effect1_dropShadow_773_2419" result="shape"/>
</filter>
<filter id="filter1_d_773_2419" x="0" y="0" width="108" height="108" filterUnits="userSpaceOnUse" color-interpolation-filters="sRGB">
<feFlood flood-opacity="0" result="BackgroundImageFix"/>
<feColorMatrix in="SourceAlpha" type="matrix" values="0 0 0 0 0 0 0 0 0 0 0 0 0 0 0 0 0 0 127 0" result="hardAlpha"/>
<feOffset dx="4" dy="4"/>
<feGaussianBlur stdDeviation="2"/>
<feComposite in2="hardAlpha" operator="out"/>
<feColorMatrix type="matrix" values="0 0 0 0 0 0 0 0 0 0 0 0 0 0 0 0 0 0 0.1 0"/>
<feBlend mode="normal" in2="BackgroundImageFix" result="effect1_dropShadow_773_2419"/>
<feBlend mode="normal" in="SourceGraphic" in2="effect1_dropShadow_773_2419" result="shape"/>
</filter>
<linearGradient id="paint0_linear_773_2419" x1="50" y1="13" x2="50" y2="87" gradientUnits="userSpaceOnUse">
<stop stop-color="white"/>
<stop offset="1" stop-color="#CBCBCB"/>
</linearGradient>
<linearGradient id="paint1_linear_773_2419" x1="100" y1="-5.58794e-05" x2="-3.83387" y2="4.1533" gradientUnits="userSpaceOnUse">
<stop stop-color="#FCA3A7"/>
<stop offset="1" stop-color="#7C00FF"/>
</linearGradient>
</defs>
</svg>
