<svg fill="none" height="37" viewBox="0 0 48 37" width="48" xmlns="http://www.w3.org/2000/svg">
    <path clip-rule="evenodd"
          d="M18.7478 3.07432C20.1466 2.99367 21.5438 3.00012 22.9426 3.00012C22.9523 3.00012 30.0308 3.00012 30.0308 3.00012C31.457 3.00012 32.8542 2.99367 34.2522 3.07432C35.5232 3.1469 36.7613 3.30173 37.9937 3.6477C40.5879 4.37512 42.8534 5.89446 44.491 8.04848C46.1189 10.1888 47 12.8089 47 15.4993C47 18.1928 46.1189 20.8113 44.491 22.9516C42.8534 25.1049 40.5879 26.625 37.9937 27.3524C36.7613 27.6984 35.5232 27.8524 34.2522 27.9258C32.8542 28.0065 31.457 27.9992 30.0582 27.9992C30.0485 27.9992 22.9684 28 22.9684 28C21.5438 27.9992 20.1466 28.0065 18.7478 27.9258C17.4776 27.8524 16.2395 27.6984 15.0071 27.3524C12.4129 26.625 10.1474 25.1049 8.50984 22.9516C6.8819 20.8113 6 18.1928 6 15.5001C6 12.8089 6.8819 10.1888 8.50984 8.04848C10.1474 5.89446 12.4129 4.37512 15.0071 3.6477C16.2395 3.30173 17.4776 3.1469 18.7478 3.07432Z"
          fill="#1F1F1F"
          fill-rule="evenodd" stroke="#2F2F2F"/>
    <g filter="url(#filter0_dd_2623_1716)">
        <path clip-rule="evenodd" d="M18.5 26C24.299 26 29 21.299 29 15.5C29 9.70101 24.299 5 18.5 5C12.701 5 8 9.70101 8 15.5C8 21.299 12.701 26 18.5 26Z"
              fill="white" fill-rule="evenodd"/>
    </g>
    <defs>
        <filter color-interpolation-filters="sRGB" filterUnits="userSpaceOnUse" height="37" id="filter0_dd_2623_1716" width="37" x="0" y="0">
            <feFlood flood-opacity="0" result="BackgroundImageFix"/>
            <feColorMatrix in="SourceAlpha" result="hardAlpha" type="matrix" values="0 0 0 0 0 0 0 0 0 0 0 0 0 0 0 0 0 0 127 0"/>
            <feOffset dy="3"/>
            <feGaussianBlur stdDeviation="0.5"/>
            <feColorMatrix type="matrix" values="0 0 0 0 0 0 0 0 0 0 0 0 0 0 0 0 0 0 0.06 0"/>
            <feBlend in2="BackgroundImageFix" mode="normal" result="effect1_dropShadow_2623_1716"/>
            <feColorMatrix in="SourceAlpha" result="hardAlpha" type="matrix" values="0 0 0 0 0 0 0 0 0 0 0 0 0 0 0 0 0 0 127 0"/>
            <feOffset dy="3"/>
            <feGaussianBlur stdDeviation="4"/>
            <feColorMatrix type="matrix" values="0 0 0 0 0 0 0 0 0 0 0 0 0 0 0 0 0 0 0.15 0"/>
            <feBlend in2="effect1_dropShadow_2623_1716" mode="normal" result="effect2_dropShadow_2623_1716"/>
            <feBlend in="SourceGraphic" in2="effect2_dropShadow_2623_1716" mode="normal" result="shape"/>
        </filter>
    </defs>
</svg>