<svg fill="none" height="25" viewBox="0 0 24 25" width="24" xmlns="http://www.w3.org/2000/svg">
    <path d="M12 13.5C12.5523 13.5 13 13.0523 13 12.5C13 11.9477 12.5523 11.5 12 11.5C11.4477 11.5 11 11.9477 11 12.5C11 13.0523 11.4477 13.5 12 13.5Z"
          stroke="#DFDFDF" stroke-linecap="round" stroke-linejoin="round" stroke-width="2"/>
    <path d="M19 13.5C19.5523 13.5 20 13.0523 20 12.5C20 11.9477 19.5523 11.5 19 11.5C18.4477 11.5 18 11.9477 18 12.5C18 13.0523 18.4477 13.5 19 13.5Z"
          stroke="#DFDFDF" stroke-linecap="round" stroke-linejoin="round" stroke-width="2"/>
    <path d="M5 13.5C5.55228 13.5 6 13.0523 6 12.5C6 11.9477 5.55228 11.5 5 11.5C4.44772 11.5 4 11.9477 4 12.5C4 13.0523 4.44772 13.5 5 13.5Z"
          stroke="#DFDFDF" stroke-linecap="round" stroke-linejoin="round" stroke-width="2"/>
</svg>