<svg width="25" height="25" viewBox="0 0 25 25" fill="none" xmlns="http://www.w3.org/2000/svg">
<path fill-rule="evenodd" clip-rule="evenodd" d="M0.714001 6C1.10833 6 1.428 6.33245 1.428 6.74255V18.2574C1.428 18.6675 1.10833 19 0.714001 19C0.319669 19 0 18.6675 0 18.2574V6.74255C0 6.33245 0.319669 6 0.714001 6Z" fill="url(#paint0_linear_1928_2474)"/>
<path fill-rule="evenodd" clip-rule="evenodd" d="M8.57134 6C8.96567 6 9.28534 6.33245 9.28534 6.74255V18.2574C9.28534 18.6675 8.96567 19 8.57134 19C8.17701 19 7.85734 18.6675 7.85734 18.2574V6.74255C7.85734 6.33245 8.17701 6 8.57134 6Z" fill="url(#paint0_linear_1928_2474)"/>
<path fill-rule="evenodd" clip-rule="evenodd" d="M16.4287 6C16.823 6 17.1427 6.33245 17.1427 6.74255V18.2574C17.1427 18.6675 16.823 19 16.4287 19C16.0343 19 15.7147 18.6675 15.7147 18.2574V6.74255C15.7147 6.33245 16.0343 6 16.4287 6Z" fill="url(#paint0_linear_1928_2474)"/>
<path fill-rule="evenodd" clip-rule="evenodd" d="M24.286 6C24.6803 6 25 6.33245 25 6.74255V18.2574C25 18.6675 24.6803 19 24.286 19C23.8917 19 23.572 18.6675 23.572 18.2574V6.74255C23.572 6.33245 23.8917 6 24.286 6Z" fill="url(#paint0_linear_1928_2474)"/>
    <defs>
        <linearGradient id="paint0_linear_1928_2474" x1="20.02" y1="0.468916" x2="-0.755038" y2="1.44397" gradientUnits="userSpaceOnUse">
            <stop stop-color="#FCA3A7"/>
            <stop offset="1" stop-color="#7C00FF"/>
        </linearGradient>
    </defs>
</svg>
