<svg width="25" height="25" viewBox="0 0 25 25" fill="none" xmlns="http://www.w3.org/2000/svg">
<path fill-rule="evenodd" clip-rule="evenodd" d="M12.5652 2.83082L9.43795 9.07721L8.97203 9.39372L1.9548 10.1205L7.15703 14.9151L7.32562 15.4396L5.87495 22.0914L12.2173 18.8082L12.7875 18.8159L18.9081 22.2001L17.6257 15.3764L17.8095 14.8566L23.0429 10.2964L15.908 9.36234L15.4514 9.0334L12.5652 2.83082ZM8.52224 8.30332L12.056 1.24499L13.1203 1.25932L16.3892 8.28448L24.4517 9.33994L24.7664 10.3192L18.8389 15.4842L20.288 23.1948L19.4182 23.7857L12.4858 19.9526L5.31902 23.6626L4.46674 23.0486L6.10981 15.5146L0.231357 10.0969L0.574393 9.12653L8.52224 8.30332Z" fill="#FFCD3C"/>
<path fill-rule="evenodd" clip-rule="evenodd" d="M11.8365 1.13542L12.0593 1L13.1236 1.01433L13.3428 1.15607L16.5549 8.05906L24.4836 9.09701L24.6853 9.26506L25 10.2443L24.9277 10.5038L19.1059 15.5767L20.5291 23.1496L20.426 23.3974L19.5562 23.9882L19.2994 24L12.482 20.2306L5.43193 23.8801L5.17546 23.8613L4.32319 23.2473L4.22701 22.9964L5.84019 15.5996L0.0649564 10.2769L0 10.0153L0.343036 9.04497L0.549081 8.88283L8.363 8.07349L11.8365 1.13542ZM12.2066 1.49204L8.74169 8.41288L8.54755 8.54702L0.754084 9.35424L0.516506 10.0263L6.27621 15.3346L6.34954 15.5668L4.74069 22.9438L5.34014 23.3757L12.3729 19.7351L12.6047 19.7383L19.405 23.4983L20.0172 23.0824L18.5977 15.5293L18.6776 15.2995L24.4834 10.2405L24.2656 9.56268L16.3573 8.52741L16.1667 8.38772L12.9627 1.50223L12.2066 1.49204ZM12.5571 3.39486L9.6574 9.18677L9.57595 9.27978L9.11003 9.5963L8.99735 9.63742L2.52027 10.3083L7.32343 14.735L7.39064 14.8402L7.55924 15.3647L7.56535 15.4918L6.22585 21.6338L12.1044 18.5907L12.2207 18.5632L12.7908 18.5709L12.9063 18.6015L18.5708 21.7335L17.3846 15.4216L17.3944 15.2949L17.5781 14.7751L17.6482 14.672L22.472 10.4687L15.8761 9.60527L15.7644 9.56103L15.3079 9.23209L15.2289 9.13665L12.5571 3.39486ZM9.24709 8.91054L12.3457 2.72126L12.7877 2.72757L15.6469 8.87214L16.0013 9.12745L23.0748 10.0535L23.2042 10.481L18.0194 14.9989L17.879 15.3959L19.1493 22.1549L18.7893 22.4144L12.7225 19.06L12.2756 19.054L5.98786 22.3089L5.63522 22.0393L7.07186 15.4518L6.94316 15.0514L1.7884 10.3006L1.92949 9.87684L8.88518 9.15639L9.24709 8.91054Z" fill="#FFCD3C"/>
</svg>
