<svg width="25" height="25" viewBox="0 0 25 25" fill="none" xmlns="http://www.w3.org/2000/svg">
<path fill-rule="evenodd" clip-rule="evenodd" d="M21.7048 9.10171C22.1093 9.09893 22.4611 9.37966 22.55 9.77617C22.8524 11.1252 23.0587 11.802 23.345 12.362C23.6348 12.9289 24.0243 13.4149 24.8043 14.3683C24.9431 14.538 25.0124 14.7545 24.9982 14.9737L24.6583 20.192C24.6287 20.6468 24.2527 21.0004 23.799 21L12.4329 20.9899C11.9893 20.9895 11.6187 20.6502 11.5771 20.2065L11.1374 15.5122C11.1092 15.2107 11.2399 14.9164 11.4822 14.7363C12.3012 14.1274 12.7879 13.5491 13.1486 12.8376C13.5245 12.0964 13.7833 11.1747 14.0863 9.82289C14.1742 9.43071 14.5196 9.15119 14.9197 9.14844L21.7048 9.10171ZM15.6098 10.8725C15.3548 11.9322 15.0826 12.8318 14.6818 13.6223C14.2513 14.4714 13.6879 15.1668 12.8946 15.8217L13.2169 19.2618L22.994 19.2705L23.259 15.2018C22.6243 14.4239 22.1663 13.8403 21.8144 13.1519C21.4901 12.5175 21.2676 11.8199 21.0291 10.8352L15.6098 10.8725Z" fill="url(#paint0_linear_1928_2474)"/>
<path fill-rule="evenodd" clip-rule="evenodd" d="M4.23399 3.7117C4.30757 3.29979 4.66427 3 5.08078 3H16.4899C16.8831 3 17.2262 3.2678 17.3235 3.65055L18.9004 9.85545L17.2332 10.2832L15.8217 4.72881H5.79332C5.3807 6.80005 4.86989 8.35177 4.21225 9.69622C3.53694 11.0768 2.72237 12.2056 1.7642 13.4194L2.30296 17.2373H11.8057V18.9661H1.55601C1.12752 18.9661 0.764354 18.6493 0.704203 18.223L0.00852345 13.2931C-0.0248162 13.0569 0.0405323 12.8173 0.189089 12.6311C1.23196 11.3241 2.02531 10.2476 2.66803 8.93368C3.30919 7.6229 3.81865 6.03685 4.23399 3.7117Z" fill="url(#paint0_linear_1928_2474)"/>
    <defs>
        <linearGradient id="paint0_linear_1928_2474" x1="20.02" y1="0.468916" x2="-0.755038" y2="1.44397" gradientUnits="userSpaceOnUse">
            <stop stop-color="#FCA3A7"/>
            <stop offset="1" stop-color="#7C00FF"/>
        </linearGradient>
    </defs>
</svg>
