<svg width="25" height="25" viewBox="0 0 25 25" fill="none" xmlns="http://www.w3.org/2000/svg">
<path fill-rule="evenodd" clip-rule="evenodd" d="M11.9074 3.44376C12.1138 3.8498 11.9636 4.35242 11.5719 4.56641C10.3195 5.25063 9.60523 5.83807 9.14608 6.35246C8.68998 6.86345 8.45193 7.33705 8.17731 7.8954C8.17167 7.90685 8.16603 7.91834 8.16036 7.92986C7.88771 8.48443 7.57263 9.12532 6.97897 9.79922C6.37462 10.4853 5.51562 11.1703 4.17621 11.9036C3.7847 12.118 3.29971 11.9627 3.09295 11.5569C2.88618 11.151 3.03595 10.6483 3.42745 10.4339C4.65395 9.76245 5.34867 9.18511 5.79503 8.67842C6.23974 8.17359 6.4717 7.70406 6.74892 7.14043L6.75022 7.13779C7.02913 6.57072 7.35102 5.91625 7.96926 5.22363C8.5854 4.53335 9.46176 3.84045 10.8244 3.09601C11.2161 2.88203 11.701 3.03772 11.9074 3.44376Z" fill="url(#paint0_linear_1928_2474)"/>
<path fill-rule="evenodd" clip-rule="evenodd" d="M8.90738 14.4438C9.1138 14.8498 8.96361 15.3524 8.57193 15.5664C7.31949 16.2506 6.60523 16.8381 6.14608 17.3525C5.68998 17.8634 5.45193 18.337 5.17731 18.8954C5.17168 18.9068 5.16603 18.9183 5.16036 18.9299C4.88771 19.4844 4.57263 20.1253 3.97897 20.7992C3.37462 21.4853 2.51562 22.1703 1.17621 22.9036C0.784703 23.118 0.299711 22.9627 0.0929478 22.5569C-0.113815 22.151 0.0359466 21.6483 0.427451 21.4339C1.65395 20.7625 2.34867 20.1851 2.79503 19.6784C3.23974 19.1736 3.4717 18.7041 3.74892 18.1404L3.75022 18.1378C4.02913 17.5707 4.35102 16.9163 4.96926 16.2236C5.5854 15.5333 6.46176 14.8404 7.82441 14.096C8.2161 13.882 8.70096 14.0377 8.90738 14.4438Z" fill="url(#paint0_linear_1928_2474)"/>
<path fill-rule="evenodd" clip-rule="evenodd" d="M24.9074 3.44376C25.1138 3.8498 24.9636 4.35242 24.5719 4.56641C23.3195 5.25063 22.6052 5.83807 22.1461 6.35246C21.69 6.86345 21.4519 7.33705 21.1773 7.8954C21.1717 7.90685 21.166 7.91834 21.1604 7.92986C20.8877 8.48443 20.5726 9.12532 19.979 9.79922C19.3746 10.4853 18.5156 11.1704 17.1762 11.9036C16.7847 12.118 16.2997 11.9627 16.0929 11.5569C15.8862 11.151 16.0359 10.6483 16.4275 10.4339C17.654 9.76245 18.3487 9.18511 18.795 8.67842C19.2397 8.17359 19.4717 7.70406 19.7489 7.14043L19.7502 7.13779C20.0291 6.57072 20.351 5.91625 20.9693 5.22363C21.5854 4.53335 22.4618 3.84045 23.8244 3.09601C24.2161 2.88203 24.701 3.03772 24.9074 3.44376Z" fill="url(#paint0_linear_1928_2474)"/>
<path fill-rule="evenodd" clip-rule="evenodd" d="M21.9074 14.4438C22.1138 14.8498 21.9636 15.3524 21.5719 15.5664C20.3195 16.2506 19.6052 16.8381 19.1461 17.3525C18.69 17.8634 18.4519 18.337 18.1773 18.8954C18.1717 18.9068 18.166 18.9183 18.1604 18.9299C17.8877 19.4844 17.5726 20.1253 16.979 20.7992C16.3746 21.4853 15.5156 22.1703 14.1762 22.9036C13.7847 23.118 13.2997 22.9627 13.0929 22.5569C12.8862 22.151 13.0359 21.6483 13.4275 21.4339C14.654 20.7625 15.3487 20.1851 15.795 19.6784C16.2397 19.1736 16.4717 18.7041 16.7489 18.1404L16.7502 18.1378C17.0291 17.5707 17.351 16.9163 17.9693 16.2236C18.5854 15.5333 19.4618 14.8404 20.8244 14.096C21.2161 13.882 21.701 14.0377 21.9074 14.4438Z" fill="url(#paint0_linear_1928_2474)"/>
    <defs>
        <linearGradient id="paint0_linear_1928_2474" x1="20.02" y1="0.468916" x2="-0.755038" y2="1.44397" gradientUnits="userSpaceOnUse">
            <stop stop-color="#FCA3A7"/>
            <stop offset="1" stop-color="#7C00FF"/>
        </linearGradient>
    </defs>
</svg>
