<svg xmlns="http://www.w3.org/2000/svg" width="20" height="18" viewBox="0 0 20 18" fill="none">
    <path d="M0 14.68C0 14 2.6 11.16 3.4 9.2C3.96 7.88 4.56 6.56 5.28 5.32C7.56 1.36 11.92 -0.0799993 16.08 1.92C16.88 2.28 17.4 2.28 17.92 1.6C18.2 1.24 18.56 0.92 18.96 0.640001C19.24 0.400001 19.6 0.400001 19.84 0.720001C20.08 1 20.08 1.32 19.84 1.56C19.12 2.28 18.4 3.04 17.64 3.72C17.2 4.12 16.76 3.84 16.32 3.6C14.64 2.68 12.92 2.2 11 2.56C8.32 3.04 6 5.64 5.84 8.36C5.72 10.32 5.96 12.2 7.24 13.76C8.68 15.48 10.56 16.2 12.8 15.88C15.04 15.56 17.08 14.8 17.96 12.4C19.16 9.16 16.72 5.8 13.32 6C11.4 6.12 10.08 7.76 10.32 9.64C10.52 10.96 12.36 11.88 13.56 11.2C14.36 10.76 14.48 10.16 14 9.4C13.8 9.12 13.76 8.84 13.96 8.56C14.2 8.24 14.52 8.24 14.88 8.4C15.6 8.72 16 9.68 15.72 10.52C15.44 11.4 14.92 12.08 14.04 12.48C12.68 13.08 10.64 12.64 9.68 11.52C8.72 10.4 8.64 8.2 9.52 6.84C11 4.6 14.08 3.92 16.52 5.36C18.6 6.6 19.68 8.52 19.6 10.96C19.52 13.36 18.32 15.12 16.16 16.24C14.68 17 13.08 17.28 11.44 17.44C8.36 17.68 5.32 17.48 2.36 16.44C1.52 16.16 0 15.72 0 14.84C0 14.6 0 14.96 0 14.68ZM4.4 10.56C3.88 11.52 3.44 12.44 2.84 13.28C1.72 14.88 1.68 14.92 3.68 15.44C4.92 15.8 6.2 16.04 7.56 16C5.76 14.6 4.84 12.72 4.4 10.56Z" fill="url(#paint0_linear_1928_2474)"/>
    <defs>
        <linearGradient id="paint0_linear_1928_2474" x1="20.02" y1="0.468916" x2="-0.755038" y2="1.44397" gradientUnits="userSpaceOnUse">
            <stop stop-color="#FCA3A7"/>
            <stop offset="1" stop-color="#7C00FF"/>
        </linearGradient>
    </defs>
</svg>