<svg xmlns="http://www.w3.org/2000/svg" width="26" height="22" viewBox="0 0 26 22" fill="none">
    <path d="M0.5 18.1C0.5 17.25 3.75 13.7 4.75 11.25C5.45 9.6 6.2 7.95 7.1 6.4C9.95 1.45 15.4 -0.350001 20.6 2.15C21.6 2.6 22.25 2.6 22.9 1.75C23.25 1.3 23.7 0.899999 24.2 0.549999C24.55 0.249999 25 0.249999 25.3 0.649999C25.6 0.999999 25.6 1.4 25.3 1.7C24.4 2.6 23.5 3.55 22.55 4.4C22 4.9 21.45 4.55 20.9 4.25C18.8 3.1 16.65 2.5 14.25 2.95C10.9 3.55 8 6.8 7.8 10.2C7.65 12.65 7.95 15 9.55 16.95C11.35 19.1 13.7 20 16.5 19.6C19.3 19.2 21.85 18.25 22.95 15.25C24.45 11.2 21.4 7 17.15 7.25C14.75 7.4 13.1 9.45 13.4 11.8C13.65 13.45 15.95 14.6 17.45 13.75C18.45 13.2 18.6 12.45 18 11.5C17.75 11.15 17.7 10.8 17.95 10.45C18.25 10.05 18.65 10.05 19.1 10.25C20 10.65 20.5 11.85 20.15 12.9C19.8 14 19.15 14.85 18.05 15.35C16.35 16.1 13.8 15.55 12.6 14.15C11.4 12.75 11.3 10 12.4 8.3C14.25 5.5 18.1 4.65 21.15 6.45C23.75 8 25.1 10.4 25 13.45C24.9 16.45 23.4 18.65 20.7 20.05C18.85 21 16.85 21.35 14.8 21.55C10.95 21.85 7.15 21.6 3.45 20.3C2.4 19.95 0.5 19.4 0.5 18.3C0.5 18 0.5 18.45 0.5 18.1ZM6 12.95C5.35 14.15 4.8 15.3 4.05 16.35C2.65 18.35 2.6 18.4 5.1 19.05C6.65 19.5 8.25 19.8 9.95 19.75C7.7 18 6.55 15.65 6 12.95Z" fill="#FFCD3C"/>
</svg>