<svg width="25" height="25" viewBox="0 0 25 25" fill="none" xmlns="http://www.w3.org/2000/svg">
<path fill-rule="evenodd" clip-rule="evenodd" d="M2.43056 8.51724C1.85526 8.51724 1.38889 9.02671 1.38889 9.65517C1.38889 10.2836 1.85526 10.7931 2.43056 10.7931H6.94444C7.51974 10.7931 7.98611 10.2836 7.98611 9.65517C7.98611 9.02671 7.51974 8.51724 6.94444 8.51724H2.43056ZM0 9.65517C0 8.18876 1.0882 7 2.43056 7H6.94444C8.2868 7 9.375 8.18876 9.375 9.65517C9.375 11.1216 8.2868 12.3103 6.94444 12.3103H2.43056C1.0882 12.3103 0 11.1216 0 9.65517Z" fill="#FFCD3C"/>
<path d="M22.5694 7H12.1528V8.51724H22.5694V7ZM17.7083 12.3103H22.5694V10.7931H17.7083V12.3103ZM17.7083 14.5862H18.9236V13.069H17.7083V14.5862ZM18.9236 16.4828H6.07639V18H18.9236V16.4828ZM6.07639 14.5862H13.1944V13.069H6.07639V14.5862ZM12.1528 12.3103H13.1944V10.7931H12.1528V12.3103ZM12.1528 10.7931C11.5775 10.7931 11.1111 10.2837 11.1111 9.65517H9.72222C9.72222 11.1216 10.8104 12.3103 12.1528 12.3103V10.7931ZM14.9306 12.6897C14.9306 11.6422 14.1533 10.7931 13.1944 10.7931V12.3103C13.3862 12.3103 13.5417 12.4802 13.5417 12.6897H14.9306ZM13.1944 14.5862C14.1533 14.5862 14.9306 13.7371 14.9306 12.6897H13.5417C13.5417 12.8991 13.3862 13.069 13.1944 13.069V14.5862ZM5.20833 15.5345C5.20833 15.0108 5.59698 14.5862 6.07639 14.5862V13.069C4.8299 13.069 3.81944 14.1728 3.81944 15.5345H5.20833ZM6.07639 16.4828C5.59698 16.4828 5.20833 16.0582 5.20833 15.5345H3.81944C3.81944 16.8962 4.8299 18 6.07639 18V16.4828ZM19.7917 15.5345C19.7917 16.0582 19.403 16.4828 18.9236 16.4828V18C20.1701 18 21.1806 16.8962 21.1806 15.5345H19.7917ZM18.9236 14.5862C19.403 14.5862 19.7917 15.0108 19.7917 15.5345H21.1806C21.1806 14.1728 20.1701 13.069 18.9236 13.069V14.5862ZM15.9722 12.6897C15.9722 13.7371 16.7495 14.5862 17.7083 14.5862V13.069C17.5166 13.069 17.3611 12.8991 17.3611 12.6897H15.9722ZM17.7083 10.7931C16.7495 10.7931 15.9722 11.6422 15.9722 12.6897H17.3611C17.3611 12.4802 17.5166 12.3103 17.7083 12.3103V10.7931ZM23.6111 9.65517C23.6111 10.2837 23.1447 10.7931 22.5694 10.7931V12.3103C23.9118 12.3103 25 11.1216 25 9.65517H23.6111ZM12.1528 7C10.8104 7 9.72222 8.18876 9.72222 9.65517H11.1111C11.1111 9.02669 11.5775 8.51724 12.1528 8.51724V7ZM22.5694 8.51724C23.1447 8.51724 23.6111 9.02669 23.6111 9.65517H25C25 8.18876 23.9118 7 22.5694 7V8.51724Z" fill="#FFCD3C"/>
</svg>
