<svg width="25" height="25" viewBox="0 0 25 25" fill="none" xmlns="http://www.w3.org/2000/svg">
<path fill-rule="evenodd" clip-rule="evenodd" d="M16.4453 5.13265C16.731 5.33631 16.8264 5.71733 16.6703 6.03156C15.4388 8.5119 15.0703 10.9959 14.9067 13.5547C17.649 9.95374 20.4824 7.43515 23.8847 5.12344C24.1518 4.94195 24.5074 4.96233 24.7521 5.17314C24.9967 5.38394 25.0694 5.73269 24.9293 6.02367C22.9012 10.2376 22.1333 14.1285 21.6823 19.3453C21.6483 19.7382 21.3023 20.0291 20.9094 19.9952C20.5165 19.9612 20.2256 19.6152 20.2595 19.2223C20.6345 14.8856 21.232 11.368 22.6009 7.80995C19.6827 10.0553 17.1807 12.642 14.6709 16.3269C14.4917 16.59 14.1599 16.7027 13.8575 16.6032C13.5551 16.5036 13.3551 16.2159 13.3673 15.8977L13.3693 15.844C13.4578 13.5277 13.5492 11.1344 14.1678 8.71493C11.593 11.551 9.37156 14.4741 7.2255 18.2275C7.05891 18.5189 6.71189 18.6549 6.3917 18.5543C6.0715 18.4537 5.86457 18.1437 5.89448 17.8095C6.14484 15.0119 6.61675 11.7806 7.43445 8.80274C5.04868 11.7189 3.07973 15.0171 1.38265 19.5368C1.24403 19.906 0.832386 20.0929 0.463214 19.9542C0.0940426 19.8156 -0.0928569 19.404 0.0457626 19.0348C2.33649 12.9342 5.12754 8.95244 8.71462 5.22116C8.95262 4.9736 9.33314 4.93052 9.62045 5.11863C9.90777 5.30673 10.0205 5.67272 9.88875 5.98987C8.81594 8.57285 8.11938 11.7186 7.68819 14.7292C10.043 11.1168 12.5562 8.2238 15.5221 5.21295C15.7684 4.96302 16.1597 4.92898 16.4453 5.13265Z" fill="url(#paint0_linear_1928_2474)"/>
    <defs>
        <linearGradient id="paint0_linear_1928_2474" x1="20.02" y1="0.468916" x2="-0.755038" y2="1.44397" gradientUnits="userSpaceOnUse">
            <stop stop-color="#FCA3A7"/>
            <stop offset="1" stop-color="#7C00FF"/>
        </linearGradient>
    </defs>
</svg>
