<svg width="25" height="25" viewBox="0 0 25 25" fill="none" xmlns="http://www.w3.org/2000/svg">
<path d="M9.85733 16.7971L10.5453 3.55285Z" fill="url(#paint0_linear_1928_2474)"/>
<path fill-rule="evenodd" clip-rule="evenodd" d="M10.5793 2.89825C10.961 2.91604 11.2553 3.22352 11.2365 3.58504L10.5485 16.8293C10.5297 17.1909 10.2051 17.4695 9.82332 17.4517C9.44159 17.4339 9.14735 17.1265 9.16613 16.7649L9.85412 3.52064C9.8729 3.15912 10.1976 2.88047 10.5793 2.89825Z" fill="url(#paint0_linear_1928_2474)"/>
<path d="M4.69745 23.3165C4.61586 21.7799 5.4669 20.4687 6.6539 19.1416C7.84091 17.8145 8.81102 17.4552 9.83583 17.2496C10.0293 18.696 9.13351 19.9505 8.26637 21.0337C7.39922 22.1168 5.89426 23.5632 4.69745 23.3165Z" fill="url(#paint0_linear_1928_2474)"/>
<path fill-rule="evenodd" clip-rule="evenodd" d="M10.2368 16.7154C10.3945 16.8216 10.498 16.9854 10.5224 17.1672C10.7556 18.9104 9.669 20.3664 8.81781 21.4296C8.3635 21.9971 7.72891 22.6777 7.02982 23.1915C6.3679 23.678 5.4703 24.1466 4.55022 23.9568C4.24489 23.8939 4.02199 23.6449 4.0063 23.3494C3.91065 21.5481 4.91786 20.0686 6.12586 18.718C6.76041 18.0086 7.35964 17.5328 7.96185 17.2063C8.56552 16.879 9.14008 16.7193 9.69238 16.6084C9.88166 16.5705 10.0791 16.6092 10.2368 16.7154ZM8.64953 18.3438C8.21373 18.5801 7.73441 18.9476 7.18195 19.5652C6.23127 20.6281 5.59378 21.5842 5.42736 22.5903C5.64289 22.5068 5.895 22.3664 6.18125 22.156C6.75062 21.7375 7.30209 21.1534 7.71493 20.6377C8.39101 19.7932 8.96274 18.9781 9.12463 18.1265C8.9658 18.1866 8.80843 18.2577 8.64953 18.3438Z" fill="url(#paint0_linear_1928_2474)"/>
<path d="M9.90917 1.56937C10.1933 0.659026 12.5164 0.900937 13.9979 1.86519C15.4794 2.82944 16.2557 2.6733 17.8494 2.74267C19.4432 2.81204 21.3202 4.34984 20.9536 6.27412C20.5869 8.19841 19.0574 10.0867 18.844 9.84882C19.0976 9.30829 20.1148 7.13176 19.6426 5.7408C19.166 4.33679 18.3121 4.56421 16.0111 4.42912C13.71 4.29403 14.0542 4.3007 12.6206 3.70841C11.1871 3.11612 9.8129 4.60369 9.82203 4.31577L9.90917 1.56937Z" fill="url(#paint0_linear_1928_2474)"/>
    <defs>
        <linearGradient id="paint0_linear_1928_2474" x1="20.02" y1="0.468916" x2="-0.755038" y2="1.44397" gradientUnits="userSpaceOnUse">
            <stop stop-color="#FCA3A7"/>
            <stop offset="1" stop-color="#7C00FF"/>
        </linearGradient>
    </defs>
</svg>
