<svg width="25" height="25" viewBox="0 0 25 25" fill="none" xmlns="http://www.w3.org/2000/svg">
<path fill-rule="evenodd" clip-rule="evenodd" d="M4 2.67972C4 2.30432 4.31053 2 4.6936 2H20.3064C20.6895 2 21 2.30432 21 2.67972V5.88549C21 6.26089 20.6895 6.56522 20.3064 6.56522H4.6936C4.31053 6.56522 4 6.26089 4 5.88549V2.67972ZM5.3872 3.35945V5.20577H19.6128V3.35945H5.3872Z" fill="url(#paint0_linear_1928_2474)"/>
<path fill-rule="evenodd" clip-rule="evenodd" d="M4 8.03381C4 7.72699 4.31053 7.47826 4.6936 7.47826H20.3064C20.6895 7.47826 21 7.72699 21 8.03381V9.34387C21 9.38687 20.9938 9.42974 20.9814 9.47159C20.5695 10.8681 19.5563 11.6244 18.7325 12.2393C18.6738 12.2831 18.6162 12.3261 18.5597 12.3686C18.127 12.6946 17.7818 12.9756 17.5345 13.3109C17.2975 13.6323 17.1358 14.0256 17.1358 14.5841C17.1358 15.1407 17.2997 15.5329 17.5401 15.8543C17.7912 16.19 18.1412 16.4712 18.5784 16.7981C18.6314 16.8376 18.6854 16.8776 18.7402 16.9183C19.5731 17.5358 20.5978 18.2955 20.9839 19.7053C20.9946 19.7444 21 19.7843 21 19.8243V22.4445C21 22.7513 20.6895 23 20.3064 23H4.6936C4.31053 23 4 22.7513 4 22.4445V19.8243C4 19.789 4.00421 19.7537 4.01257 19.7191C4.35721 18.2889 5.40008 17.5239 6.24719 16.9025C6.29629 16.8664 6.34473 16.8309 6.39233 16.7958C6.8366 16.4677 7.19405 16.1862 7.45125 15.8497C7.69686 15.5284 7.86417 15.1376 7.86417 14.5841C7.86417 14.028 7.69976 13.6359 7.45864 13.3146C7.20663 12.9787 6.85555 12.6975 6.41729 12.3705C6.36516 12.3316 6.312 12.2922 6.25803 12.2523C5.42301 11.6342 4.3957 10.8737 4.01557 9.46091C4.00522 9.42244 4 9.38321 4 9.34387V8.03381ZM5.3872 8.58935V9.28265C5.68345 10.3086 6.40565 10.8456 7.23447 11.4619C7.27699 11.4936 7.31978 11.5254 7.36282 11.5575C7.80248 11.8855 8.28525 12.2593 8.64762 12.7422C9.02088 13.2397 9.25137 13.8302 9.25137 14.5841C9.25137 15.3406 9.01457 15.9324 8.63432 16.4299C8.26563 16.9122 7.77543 17.2857 7.33257 17.6127C7.29677 17.6391 7.26115 17.6654 7.22574 17.6914C6.37965 18.3147 5.65423 18.8491 5.3872 19.8794V21.8889H19.6128V19.8866C19.3116 18.8614 18.59 18.324 17.7641 17.7089C17.7203 17.6763 17.6763 17.6435 17.632 17.6104C17.1929 17.2822 16.7114 16.9083 16.3501 16.4253C15.9781 15.9279 15.7486 15.3376 15.7486 14.5841C15.7486 13.8325 15.9734 13.2433 16.3401 12.7459C16.6967 12.2624 17.1726 11.8884 17.6093 11.5593C17.6591 11.5218 17.7086 11.4847 17.7577 11.4479C18.571 10.8379 19.2901 10.2987 19.6128 9.27699V8.58935H5.3872Z" fill="url(#paint0_linear_1928_2474)"/>
    <defs>
        <linearGradient id="paint0_linear_1928_2474" x1="20.02" y1="0.468916" x2="-0.755038" y2="1.44397" gradientUnits="userSpaceOnUse">
            <stop stop-color="#FCA3A7"/>
            <stop offset="1" stop-color="#7C00FF"/>
        </linearGradient>
    </defs>
</svg>
