<svg width="25" height="25" viewBox="0 0 25 25" fill="none" xmlns="http://www.w3.org/2000/svg">
<path fill-rule="evenodd" clip-rule="evenodd" d="M8.0649 2C8.50804 2 8.86727 2.37733 8.86727 2.84279V12.9868C8.86727 13.4523 8.50804 13.8296 8.0649 13.8296H2.51989C4.40693 16.3958 6.0495 19.6418 6.60248 21.9515C6.71056 22.4029 6.44978 22.8608 6.02002 22.9744C5.59026 23.0879 5.15427 22.814 5.04619 22.3626C4.46353 19.9289 2.40223 16.0729 0.210308 13.5556C-0.00432999 13.3091 -0.060103 12.9527 0.0681198 12.647C0.196343 12.3413 0.484358 12.144 0.802389 12.144H7.26253V2.84279C7.26253 2.37733 7.62176 2 8.0649 2Z" fill="#FFCD3C"/>
<path fill-rule="evenodd" clip-rule="evenodd" d="M16.9351 2C17.3782 2 17.7375 2.37733 17.7375 2.84279V12.144H24.1976C24.5156 12.144 24.8037 12.3413 24.9319 12.647C25.0601 12.9527 25.0043 13.3091 24.7897 13.5556C22.5978 16.0729 20.5365 19.9289 19.9538 22.3626C19.8457 22.814 19.4097 23.0879 18.98 22.9744C18.5502 22.8608 18.2894 22.4029 18.3975 21.9515C18.9505 19.6418 20.5931 16.3958 22.4801 13.8296H16.9351C16.492 13.8296 16.1327 13.4523 16.1327 12.9868V2.84279C16.1327 2.37733 16.492 2 16.9351 2Z" fill="#FFCD3C"/>
</svg>
