<svg width="25" height="25" viewBox="0 0 25 25" fill="none" xmlns="http://www.w3.org/2000/svg">
<path fill-rule="evenodd" clip-rule="evenodd" d="M12.5 1.428C6.3851 1.428 1.428 6.38511 1.428 12.5C1.428 18.6149 6.3851 23.572 12.5 23.572C18.6149 23.572 23.572 18.6149 23.572 12.5C23.572 6.38511 18.6149 1.428 12.5 1.428ZM0 12.5C0 5.59644 5.59644 0 12.5 0C19.4036 0 25 5.59644 25 12.5C25 19.4036 19.4036 25 12.5 25C5.59644 25 0 19.4036 0 12.5Z" fill="#FFCD3C"/>
<path fill-rule="evenodd" clip-rule="evenodd" d="M8.23676 7.2431C9.78958 6.12802 11.5979 5.76876 12.6842 5.77129C14.8053 5.77624 16.4072 6.78395 17.4542 8.10974C18.4866 9.41694 19.003 11.0587 18.975 12.4334C18.9592 13.2072 18.6596 14.3992 17.9559 15.4193C17.2336 16.4662 16.054 17.3685 14.3154 17.3928C13.3674 17.4061 12.2507 16.8288 11.5975 15.8325C10.906 14.7778 10.7608 13.3138 11.6447 11.6305C11.828 11.2814 12.2596 11.147 12.6088 11.3303C12.9579 11.5136 13.0923 11.9452 12.909 12.2944C12.2342 13.5796 12.4206 14.4834 12.7917 15.0496C13.2012 15.6741 13.8781 15.9708 14.2954 15.9649C15.476 15.9484 16.2612 15.361 16.7804 14.6084C17.3182 13.8288 17.5369 12.9112 17.5473 12.4043C17.5684 11.3708 17.167 10.0501 16.3336 8.99478C15.5148 7.95802 14.3029 7.20307 12.6809 7.19929C11.8418 7.19734 10.3392 7.49139 9.0697 8.40302C7.83846 9.28717 6.79047 10.7736 6.80369 13.2772C6.82206 16.7577 8.60866 19.1946 10.9344 20.6417C13.2908 22.108 16.1467 22.5221 18.1763 21.9739C18.557 21.871 18.949 22.0963 19.0518 22.4769C19.1547 22.8576 18.9294 23.2496 18.5488 23.3524C16.0881 24.0172 12.8274 23.5016 10.18 21.8542C7.50174 20.1877 5.39705 17.327 5.37571 13.2848C5.35995 10.2993 6.64569 8.38565 8.23676 7.2431Z" fill="#FFCD3C"/>
</svg>
