<svg width="25" height="25" viewBox="0 0 25 25" fill="none" xmlns="http://www.w3.org/2000/svg">
<path fill-rule="evenodd" clip-rule="evenodd" d="M6.3666 6.24715C6.71851 6.58659 6.7301 7.14859 6.3925 7.50242C5.29508 8.65255 4.78051 9.5058 4.52099 10.1841C4.26283 10.8588 4.23056 11.4207 4.19664 12.1036L4.19518 12.133C4.16156 12.8111 4.12183 13.6126 3.7568 14.548C3.38772 15.4938 2.71442 16.5133 1.51068 17.7366C1.1677 18.0852 0.608635 18.0882 0.261968 17.7433C-0.0846978 17.3985 -0.0876878 16.8364 0.25529 16.4878C1.34877 15.3765 1.85736 14.5541 2.11285 13.8994C2.36711 13.2479 2.39886 12.6998 2.43287 12.0151L2.43414 11.9894C2.4679 11.3087 2.50802 10.4999 2.87277 9.5466C3.24075 8.58482 3.91246 7.53679 5.11814 6.27318C5.45575 5.91936 6.0147 5.90771 6.3666 6.24715Z" fill="#FFCD3C"/>
<path fill-rule="evenodd" clip-rule="evenodd" d="M15.5982 6.24715C15.9501 6.58659 15.9617 7.14859 15.6241 7.50242C14.5267 8.65255 14.0121 9.5058 13.7526 10.1841C13.4944 10.8588 13.4621 11.4207 13.4282 12.1036L13.4268 12.133C13.3931 12.8111 13.3534 13.6126 12.9884 14.548C12.6193 15.4938 11.946 16.5133 10.7422 17.7366C10.3993 18.0852 9.84021 18.0882 9.49354 17.7433C9.14687 17.3985 9.14388 16.8364 9.48686 16.4878C10.5803 15.3765 11.0889 14.5541 11.3444 13.8994C11.5987 13.2479 11.6304 12.6998 11.6644 12.0151L11.6657 11.9894C11.6995 11.3087 11.7396 10.4999 12.1043 9.5466C12.4723 8.58482 13.144 7.53679 14.3497 6.27318C14.6873 5.91936 15.2463 5.90771 15.5982 6.24715Z" fill="#FFCD3C"/>
<path fill-rule="evenodd" clip-rule="evenodd" d="M24.7283 6.24715C25.0802 6.58659 25.0918 7.14859 24.7542 7.50242C23.6568 8.65255 23.1422 9.5058 22.8827 10.1841C22.6245 10.8588 22.5923 11.4207 22.5583 12.1036L22.5569 12.133C22.5233 12.8111 22.4835 13.6126 22.1185 14.548C21.7494 15.4938 21.0761 16.5133 19.8724 17.7366C19.5294 18.0852 18.9703 18.0882 18.6237 17.7433C18.277 17.3985 18.274 16.8364 18.617 16.4878C19.7105 15.3765 20.2191 14.5541 20.4745 13.8994C20.7288 13.2479 20.7605 12.6998 20.7946 12.0151L20.7958 11.9894C20.8296 11.3087 20.8697 10.4999 21.2345 9.5466C21.6024 8.58482 22.2742 7.53679 23.4798 6.27318C23.8174 5.91936 24.3764 5.90771 24.7283 6.24715Z" fill="#FFCD3C"/>
</svg>
