<svg width="25" height="25" viewBox="0 0 25 25" fill="none" xmlns="http://www.w3.org/2000/svg">
<path d="M23 20.0055C23.0001 20.3987 22.9227 20.7881 22.7725 21.1514C22.6222 21.5147 22.4018 21.8448 22.1241 22.1229C21.8463 22.401 21.5165 22.6216 21.1536 22.772C20.7906 22.9225 20.4016 23 20.0087 23C19.6159 23 19.2268 22.9225 18.8639 22.772C18.5009 22.6216 18.1712 22.401 17.8934 22.1229C17.6156 21.8448 17.3953 21.5147 17.245 21.1514C17.0947 20.7881 17.0174 20.3987 17.0174 20.0055C17.0174 19.6123 17.0947 19.2229 17.245 18.8596C17.3953 18.4963 17.6156 18.1662 17.8934 17.8881C18.1712 17.61 18.5009 17.3895 18.8639 17.239C19.2268 17.0885 19.6159 17.011 20.0087 17.011C20.4016 17.011 20.7906 17.0885 21.1536 17.239C21.5165 17.3895 21.8463 17.61 22.1241 17.8881C22.4018 18.1662 22.6222 18.4963 22.7725 18.8596C22.9227 19.2229 23.0001 19.6123 23 20.0055Z" fill="white"/>
<path d="M22.9906 4.9945C22.9907 5.38772 22.9134 5.7771 22.7631 6.14041C22.6128 6.50371 22.3925 6.83383 22.1147 7.1119C21.8369 7.38997 21.5071 7.61055 21.1442 7.76105C20.7812 7.91154 20.3922 7.989 19.9993 7.989C19.6065 7.989 19.2175 7.91154 18.8545 7.76105C18.4916 7.61055 18.1618 7.38997 17.884 7.1119C17.6062 6.83383 17.3859 6.50371 17.2356 6.14041C17.0853 5.7771 17.008 5.38772 17.0081 4.9945C17.008 4.60128 17.0853 4.2119 17.2356 3.84859C17.3859 3.48529 17.6062 3.15517 17.884 2.8771C18.1618 2.59903 18.4916 2.37845 18.8545 2.22795C19.2175 2.07746 19.6065 2 19.9993 2C20.3922 2 20.7812 2.07746 21.1442 2.22795C21.5071 2.37845 21.8369 2.59903 22.1147 2.8771C22.3925 3.15517 22.6128 3.48529 22.7631 3.84859C22.9134 4.2119 22.9907 4.60128 22.9906 4.9945Z" fill="white"/>
<path d="M7.98256 20.0055C7.98263 20.3987 7.9053 20.7881 7.75501 21.1514C7.60472 21.5147 7.38439 21.8448 7.10662 22.1229C6.82885 22.401 6.49907 22.6216 6.13611 22.772C5.77316 22.9225 5.38414 23 4.99128 23C4.59841 23 4.2094 22.9225 3.84644 22.772C3.48349 22.6216 3.15371 22.401 2.87594 22.1229C2.59817 21.8448 2.37784 21.5147 2.22755 21.1514C2.07725 20.7881 1.99993 20.3987 2 20.0055C1.99993 19.6123 2.07725 19.2229 2.22755 18.8596C2.37784 18.4963 2.59817 18.1662 2.87594 17.8881C3.15371 17.61 3.48349 17.3895 3.84644 17.239C4.2094 17.0885 4.59841 17.011 4.99128 17.011C5.38414 17.011 5.77316 17.0885 6.13611 17.239C6.49907 17.3895 6.82885 17.61 7.10662 17.8881C7.38439 18.1662 7.60472 18.4963 7.75501 18.8596C7.9053 19.2229 7.98263 19.6123 7.98256 20.0055Z" fill="white"/>
<path d="M15.5376 12.4437C15.5377 12.8369 15.4604 13.2263 15.3101 13.5896C15.1598 13.9529 14.9395 14.283 14.6617 14.5611C14.3839 14.8391 14.0541 15.0597 13.6912 15.2102C13.3282 15.3607 12.9392 15.4382 12.5463 15.4382C12.1535 15.4382 11.7645 15.3607 11.4015 15.2102C11.0386 15.0597 10.7088 14.8391 10.431 14.5611C10.1532 14.283 9.93291 13.9529 9.78262 13.5896C9.63232 13.2263 9.555 12.8369 9.55507 12.4437C9.555 12.0504 9.63232 11.6611 9.78262 11.2977C9.93291 10.9344 10.1532 10.6043 10.431 10.3263C10.7088 10.0482 11.0386 9.8276 11.4015 9.67711C11.7645 9.52662 12.1535 9.44916 12.5463 9.44916C12.9392 9.44916 13.3282 9.52662 13.6912 9.67711C14.0541 9.8276 14.3839 10.0482 14.6617 10.3263C14.9395 10.6043 15.1598 10.9344 15.3101 11.2977C15.4604 11.6611 15.5377 12.0504 15.5376 12.4437Z" fill="white"/>
<path d="M23 20.0055C23.0001 20.3987 22.9227 20.7881 22.7725 21.1514C22.6222 21.5147 22.4018 21.8448 22.1241 22.1229C21.8463 22.401 21.5165 22.6216 21.1536 22.772C20.7906 22.9225 20.4016 23 20.0087 23C19.6159 23 19.2268 22.9225 18.8639 22.772C18.5009 22.6216 18.1712 22.401 17.8934 22.1229C17.6156 21.8448 17.3953 21.5147 17.245 21.1514C17.0947 20.7881 17.0174 20.3987 17.0174 20.0055C17.0174 19.6123 17.0947 19.2229 17.245 18.8596C17.3953 18.4963 17.6156 18.1662 17.8934 17.8881C18.1712 17.61 18.5009 17.3895 18.8639 17.239C19.2268 17.0885 19.6159 17.011 20.0087 17.011C20.4016 17.011 20.7906 17.0885 21.1536 17.239C21.5165 17.3895 21.8463 17.61 22.1241 17.8881C22.4018 18.1662 22.6222 18.4963 22.7725 18.8596C22.9227 19.2229 23.0001 19.6123 23 20.0055Z" stroke="black" stroke-width="1.5" stroke-linecap="round"/>
<path d="M22.9906 4.9945C22.9907 5.38772 22.9134 5.7771 22.7631 6.14041C22.6128 6.50371 22.3925 6.83383 22.1147 7.1119C21.8369 7.38997 21.5071 7.61055 21.1442 7.76105C20.7812 7.91154 20.3922 7.989 19.9993 7.989C19.6065 7.989 19.2175 7.91154 18.8545 7.76105C18.4916 7.61055 18.1618 7.38997 17.884 7.1119C17.6062 6.83383 17.3859 6.50371 17.2356 6.14041C17.0853 5.7771 17.008 5.38772 17.0081 4.9945C17.008 4.60128 17.0853 4.2119 17.2356 3.84859C17.3859 3.48529 17.6062 3.15517 17.884 2.8771C18.1618 2.59903 18.4916 2.37845 18.8545 2.22795C19.2175 2.07746 19.6065 2 19.9993 2C20.3922 2 20.7812 2.07746 21.1442 2.22795C21.5071 2.37845 21.8369 2.59903 22.1147 2.8771C22.3925 3.15517 22.6128 3.48529 22.7631 3.84859C22.9134 4.2119 22.9907 4.60128 22.9906 4.9945Z" stroke="black" stroke-width="1.5" stroke-linecap="round"/>
<path d="M7.98256 20.0055C7.98263 20.3987 7.9053 20.7881 7.75501 21.1514C7.60472 21.5147 7.38439 21.8448 7.10662 22.1229C6.82885 22.401 6.49907 22.6216 6.13611 22.772C5.77316 22.9225 5.38414 23 4.99128 23C4.59841 23 4.2094 22.9225 3.84644 22.772C3.48349 22.6216 3.15371 22.401 2.87594 22.1229C2.59817 21.8448 2.37784 21.5147 2.22755 21.1514C2.07725 20.7881 1.99993 20.3987 2 20.0055C1.99993 19.6123 2.07725 19.2229 2.22755 18.8596C2.37784 18.4963 2.59817 18.1662 2.87594 17.8881C3.15371 17.61 3.48349 17.3895 3.84644 17.239C4.2094 17.0885 4.59841 17.011 4.99128 17.011C5.38414 17.011 5.77316 17.0885 6.13611 17.239C6.49907 17.3895 6.82885 17.61 7.10662 17.8881C7.38439 18.1662 7.60472 18.4963 7.75501 18.8596C7.9053 19.2229 7.98263 19.6123 7.98256 20.0055Z" stroke="black" stroke-width="1.5" stroke-linecap="round"/>
<path d="M15.5376 12.4437C15.5377 12.8369 15.4604 13.2263 15.3101 13.5896C15.1598 13.9529 14.9395 14.283 14.6617 14.5611C14.3839 14.8391 14.0541 15.0597 13.6912 15.2102C13.3282 15.3607 12.9392 15.4382 12.5463 15.4382C12.1535 15.4382 11.7645 15.3607 11.4015 15.2102C11.0386 15.0597 10.7088 14.8391 10.431 14.5611C10.1532 14.283 9.93291 13.9529 9.78262 13.5896C9.63232 13.2263 9.555 12.8369 9.55507 12.4437C9.555 12.0504 9.63232 11.6611 9.78262 11.2977C9.93291 10.9344 10.1532 10.6043 10.431 10.3263C10.7088 10.0482 11.0386 9.8276 11.4015 9.67711C11.7645 9.52662 12.1535 9.44916 12.5463 9.44916C12.9392 9.44916 13.3282 9.52662 13.6912 9.67711C14.0541 9.8276 14.3839 10.0482 14.6617 10.3263C14.9395 10.6043 15.1598 10.9344 15.3101 11.2977C15.4604 11.6611 15.5377 12.0504 15.5376 12.4437Z" stroke="black" stroke-width="1.5" stroke-linecap="round"/>
</svg>
