<svg width="23" height="23" viewBox="0 0 23 23" fill="none" xmlns="http://www.w3.org/2000/svg">
<path d="M22 19.0055C22.0001 19.3987 21.9228 19.7881 21.7725 20.1514C21.6222 20.5147 21.4018 20.8448 21.1241 21.1229C20.8463 21.401 20.5165 21.6216 20.1536 21.772C19.7906 21.9225 19.4016 22 19.0087 22C18.6159 22 18.2268 21.9225 17.8639 21.772C17.5009 21.6216 17.1712 21.401 16.8934 21.1229C16.6156 20.8448 16.3953 20.5147 16.245 20.1514C16.0947 19.7881 16.0174 19.3987 16.0174 19.0055C16.0174 18.6123 16.0947 18.2229 16.245 17.8596C16.3953 17.4963 16.6156 17.1662 16.8934 16.8881C17.1712 16.61 17.5009 16.3894 17.8639 16.239C18.2268 16.0885 18.6159 16.011 19.0087 16.011C19.4016 16.011 19.7906 16.0885 20.1536 16.239C20.5165 16.3894 20.8463 16.61 21.1241 16.8881C21.4018 17.1662 21.6222 17.4963 21.7725 17.8596C21.9228 18.2229 22.0001 18.6123 22 19.0055Z" stroke="#FFCD3C" stroke-width="1.5" stroke-linecap="round"/>
<path d="M21.9906 3.9945C21.9907 4.38772 21.9134 4.7771 21.7631 5.14041C21.6128 5.50371 21.3925 5.83383 21.1147 6.1119C20.8369 6.38997 20.5071 6.61055 20.1442 6.76105C19.7812 6.91154 19.3922 6.989 18.9993 6.989C18.6065 6.989 18.2175 6.91154 17.8545 6.76105C17.4916 6.61055 17.1618 6.38997 16.884 6.1119C16.6062 5.83383 16.3859 5.50371 16.2356 5.14041C16.0853 4.7771 16.008 4.38772 16.0081 3.9945C16.008 3.60128 16.0853 3.2119 16.2356 2.84859C16.3859 2.48529 16.6062 2.15517 16.884 1.8771C17.1618 1.59903 17.4916 1.37845 17.8545 1.22795C18.2175 1.07746 18.6065 1 18.9993 1C19.3922 1 19.7812 1.07746 20.1442 1.22795C20.5071 1.37845 20.8369 1.59903 21.1147 1.8771C21.3925 2.15517 21.6128 2.48529 21.7631 2.84859C21.9134 3.2119 21.9907 3.60128 21.9906 3.9945Z" stroke="#FFCD3C" stroke-width="1.5" stroke-linecap="round"/>
<path d="M6.98256 19.0055C6.98263 19.3987 6.90531 19.7881 6.75501 20.1514C6.60472 20.5147 6.38439 20.8448 6.10662 21.1229C5.82885 21.401 5.49907 21.6216 5.13611 21.772C4.77316 21.9225 4.38414 22 3.99128 22C3.59841 22 3.2094 21.9225 2.84644 21.772C2.48349 21.6216 2.15371 21.401 1.87594 21.1229C1.59817 20.8448 1.37784 20.5147 1.22755 20.1514C1.07725 19.7881 0.999931 19.3987 1 19.0055C0.999931 18.6123 1.07725 18.2229 1.22755 17.8596C1.37784 17.4963 1.59817 17.1662 1.87594 16.8881C2.15371 16.61 2.48349 16.3894 2.84644 16.239C3.2094 16.0885 3.59841 16.011 3.99128 16.011C4.38414 16.011 4.77316 16.0885 5.13611 16.239C5.49907 16.3894 5.82885 16.61 6.10662 16.8881C6.38439 17.1662 6.60472 17.4963 6.75501 17.8596C6.90531 18.2229 6.98263 18.6123 6.98256 19.0055Z" stroke="#FFCD3C" stroke-width="1.5" stroke-linecap="round"/>
<path d="M14.5376 11.4437C14.5377 11.8369 14.4604 12.2263 14.3101 12.5896C14.1598 12.9529 13.9395 13.283 13.6617 13.5611C13.3839 13.8391 13.0541 14.0597 12.6912 14.2102C12.3282 14.3607 11.9392 14.4382 11.5463 14.4382C11.1535 14.4382 10.7645 14.3607 10.4015 14.2102C10.0386 14.0597 9.70878 13.8391 9.43101 13.5611C9.15324 13.283 8.93291 12.9529 8.78262 12.5896C8.63232 12.2263 8.555 11.8369 8.55507 11.4437C8.555 11.0504 8.63232 10.6611 8.78262 10.2977C8.93291 9.93444 9.15324 9.60433 9.43101 9.32626C9.70878 9.04818 10.0386 8.8276 10.4015 8.67711C10.7645 8.52662 11.1535 8.44916 11.5463 8.44916C11.9392 8.44916 12.3282 8.52662 12.6912 8.67711C13.0541 8.8276 13.3839 9.04818 13.6617 9.32626C13.9395 9.60433 14.1598 9.93444 14.3101 10.2977C14.4604 10.6611 14.5377 11.0504 14.5376 11.4437Z" stroke="#FFCD3C" stroke-width="1.5" stroke-linecap="round"/>
</svg>
